<?xml version="1.0" standalone="no"?><!DOCTYPE svg PUBLIC "-//W3C//DTD SVG 1.1//EN" "http://www.w3.org/Graphics/SVG/1.1/DTD/svg11.dtd"><svg t="1669127849840" class="icon" viewBox="0 0 1024 1024" version="1.1" xmlns="http://www.w3.org/2000/svg" p-id="7352" xmlns:xlink="http://www.w3.org/1999/xlink" width="200" height="200"><path d="M789.2 551.4l-49.8 49.8c-1.6 1.6-3.2 3-5 4.2s-3.8 2.2-5.8 3c-2 0.8-4 1.4-6.2 2s-4.2 0.6-6.4 0.8c-2.2 0-4.4-0.2-6.4-0.6-2.2-0.4-4.2-1-6.2-1.8s-4-1.8-5.8-3c-1.8-1.2-3.6-2.6-5.2-4l-52-49.8c-1.4-1.4-2.8-2.8-3.8-4.4s-2.2-3.2-3-5c-0.8-1.8-1.6-3.6-2.2-5.6-0.6-1.8-1-3.8-1.2-5.8-0.2-2-0.2-4-0.2-5.8s0.4-4 1-5.8c0.4-2 1.2-3.8 2-5.6 0.8-1.8 1.8-3.6 2.8-5.2 1.2-1.6 2.4-3.2 3.8-4.6 1.4-1.4 2.8-2.8 4.4-3.8 1.6-1.2 3.2-2.2 5-3 1.8-0.8 3.6-1.6 5.6-2 1.8-0.6 3.8-1 5.8-1.2 2-0.2 4-0.2 5.8 0 2 0.2 4 0.4 5.8 1 2 0.4 3.8 1.2 5.6 2-0.8-3.8-1.6-7.6-2.6-11.4-1-3.8-2.2-7.6-3.4-11.2-1.2-3.8-2.6-7.4-4.2-11-1.6-3.6-3.2-7.2-4.8-10.6-1.8-3.6-3.6-7-5.6-10.4-2-3.4-4-6.6-6.4-10-2.2-3.2-4.6-6.4-7-9.4s-5-6-7.6-9c-2.6-2.8-5.4-5.6-8.2-8.4-2.8-2.8-5.8-5.4-8.8-7.8-3-2.4-6.2-4.8-9.4-7.2-3.2-2.2-6.4-4.4-9.8-6.6-3.4-2-6.8-4-10.2-5.8-3.4-1.8-7-3.6-10.6-5-3.6-1.6-7.2-3-11-4.4-3.6-1.4-7.4-2.6-11.2-3.6-3.8-1-7.6-2-11.4-2.8-3.8-0.8-7.8-1.4-11.6-2-3.8-0.6-7.8-1-11.8-1.2-4-0.2-7.8-0.4-11.8-0.4-4 0-7.8 0.2-11.8 0.4-4 0.2-7.8 0.8-11.6 1.2-3.8 0.6-7.8 1.2-11.6 2s-7.6 1.8-11.4 2.8c-3.8 1-7.4 2.4-11.2 3.6-3.6 1.4-7.4 2.8-10.8 4.4-3.6 1.6-7 3.4-10.6 5.2-3.4 1.8-6.8 3.8-10.2 6-3.4 2-6.6 4.2-9.8 6.6-3.2 2.4-6.2 4.8-9.2 7.2-3 2.6-6 5.2-8.8 7.8-2.8 2.8-5.6 5.6-8.2 8.4l-2.4 2.4c-0.8 0.8-1.6 1.4-2.6 2.2s-1.8 1.2-2.8 1.8c-1 0.6-2 1-3 1.6-1 0.4-2 1-3 1.2-1 0.4-2 0.8-3.2 1-1 0.2-2.2 0.4-3.2 0.6-1 0.2-2.2 0.2-3.2 0.4h-3.4c-1.2 0-2.2-0.2-3.2-0.4s-2.2-0.4-3.2-0.6-2.2-0.6-3.2-1l-3-1.2c-1-0.4-2-1-3-1.6-1-0.6-1.8-1.2-2.8-1.8-0.8-0.6-1.8-1.4-2.6-2l-2.4-2.4c-0.8-0.8-1.4-1.6-2.2-2.6-0.6-0.8-1.2-1.8-1.8-2.8-0.6-1-1-2-1.6-3-0.4-1-1-2-1.2-3-0.4-1-0.8-2-1-3.2-0.2-1-0.4-2.2-0.6-3.2s-0.2-2.2-0.4-3.2v-3.4c0-1.2 0.2-2.2 0.4-3.2s0.4-2.2 0.6-3.2 0.6-2.2 1-3.2l1.2-3c0.4-1 1-2 1.6-3 0.6-1 1.2-1.8 1.8-2.8 0.6-0.8 1.4-1.8 2-2.6 3.8-4.2 7.6-8.2 11.8-12.2 4-4 8.2-7.8 12.6-11.4 4.4-3.6 8.8-7 13.4-10.4 4.6-3.4 9.2-6.4 14-9.4 4.8-3 9.8-5.8 14.8-8.4 5-2.6 10.2-5 15.2-7.4 5.2-2.2 10.4-4.4 15.8-6.2 5.4-1.8 10.8-3.6 16.2-5 5.4-1.4 11-2.8 16.4-3.8 5.6-1 11.2-2 16.8-2.6s11.2-1.2 16.8-1.4c5.6-0.2 11.2-0.4 17-0.2s11.2 0.4 17 1c5.6 0.6 11.2 1.2 16.8 2.2 5.6 1 11.2 2 16.6 3.4s11 2.8 16.4 4.6c5.4 1.8 10.8 3.6 16 5.6 5.2 2 10.4 4.4 15.6 6.8 5 2.4 10 5 15 7.8s9.6 5.8 14.4 9c4.6 3.2 9.2 6.4 13.8 10 4.4 3.4 8.8 7.2 13 11 4.2 3.8 8.2 7.8 12.2 11.8 4 4 7.6 8.2 11.2 12.6 3.6 4.4 7 8.8 10.4 13.4 3.2 4.6 6.4 9.4 9.4 14.2a215.566 215.566 0 0 1 15.6 30.2c2.2 5.2 4.2 10.4 6.2 15.8 1.8 5.4 3.6 10.8 5 16.2 1.4 5.4 2.8 11 3.8 16.6 1 5.6 2 11.2 2.6 16.8 1.8-1.2 3.6-2.2 5.4-3 2-0.8 3.8-1.4 5.8-2 2-0.4 4-0.8 6.2-0.8 2 0 4.2 0 6.2 0.2s4 0.8 6 1.4 3.8 1.4 5.6 2.6c1.8 1 3.6 2.2 5.2 3.6s3 2.8 4.4 4.4c1.4 1.6 2.6 3.4 3.6 5.2 1 1.8 1.8 3.8 2.6 5.6 0.6 2 1.2 4 1.4 6 0.2 2 0.4 4.2 0.4 6.2s-0.4 4.2-0.8 6.2-1.2 4-2 5.8c-0.8 2-1.8 3.8-3 5.4-1.4 1.4-2.6 3-4.2 4.6z m-100.6 133.6c-3.8 4.2-7.6 8.2-11.8 12.2-4 4-8.2 7.8-12.6 11.4-4.4 3.6-8.8 7-13.4 10.4-4.6 3.4-9.2 6.4-14 9.4-4.8 3-9.8 5.8-14.8 8.4-5 2.6-10 5-15.2 7.4-5.2 2.2-10.4 4.4-15.8 6.2-5.4 1.8-10.8 3.6-16.2 5-5.4 1.4-11 2.8-16.4 3.8-5.6 1.2-11.2 2-16.8 2.8s-11.2 1.2-16.8 1.6c-5.6 0.4-11.2 0.4-17 0.2-5.6-0.2-11.2-0.4-17-1-5.6-0.6-11.2-1.2-16.8-2.2-5.6-1-11.2-2-16.6-3.4-5.4-1.4-11-2.8-16.4-4.4-5.4-1.6-10.8-3.6-16-5.6-5.2-2-10.4-4.4-15.6-6.8s-10-5-15-7.8-9.8-5.8-14.4-9-9.2-6.4-13.8-10c-4.4-3.4-8.8-7.2-13-10.8-4.2-3.8-8.2-7.8-12.2-11.8-4-4-7.6-8.2-11.2-12.6-3.6-4.4-7-8.8-10.4-13.4-3.2-4.6-6.4-9.2-9.4-14.2-3-4.8-5.8-9.8-8.4-14.8-2.6-5-5-10.2-7.2-15.2-2.2-5.2-4.2-10.4-6.2-15.8-1.8-5.4-3.6-10.8-5-16.2-1.4-5.4-2.8-11-3.8-16.4-1-5.6-2-11.2-2.6-16.8-1.8 1.2-3.6 2.2-5.4 3-2 0.8-3.8 1.4-6 1.8-2 0.4-4 0.8-6.2 0.8s-4.2 0-6.2-0.4-4-0.8-6-1.4c-2-0.6-3.8-1.6-5.6-2.6-1.8-1-3.4-2.2-5-3.6s-3-2.8-4.4-4.4c-1.4-1.6-2.4-3.4-3.4-5.2-1-1.8-1.8-3.8-2.4-5.6-0.6-2-1.2-4-1.4-6-0.2-2-0.4-4.2-0.2-6.2s0.4-4.2 0.8-6.2 1.2-4 2-5.8c0.8-1.8 1.8-3.6 3-5.4 1.2-1.8 2.4-3.2 4-4.8l49.8-49.8c1.6-1.6 3.2-3 5-4.2s3.8-2.2 5.8-3c2-0.8 4-1.4 6.2-2s4.2-0.6 6.4-0.8c2.2 0 4.4 0.2 6.4 0.6 2.2 0.4 4.2 1 6.2 1.8s4 1.8 5.8 3 3.6 2.6 5.2 4l52 49.8c1.4 1.4 2.8 2.8 4 4.4 1.2 1.6 2.2 3.4 3 5.2 0.8 1.8 1.6 3.6 2.2 5.6 0.6 2 1 3.8 1.2 5.8 0.2 2 0.2 4 0 6s-0.4 4-1 5.8-1.2 3.8-2 5.6c-0.8 1.8-1.8 3.6-3 5.2s-2.4 3.2-3.8 4.6-3 2.6-4.6 3.8c-1.6 1.2-3.4 2.2-5.2 3-1.8 0.8-3.6 1.6-5.6 2-2 0.6-3.8 0.8-5.8 1s-4 0.2-6 0-4-0.6-5.8-1.2c-2-0.6-3.8-1.2-5.6-2.2 0.8 3.8 1.6 7.6 2.6 11.6s2.2 7.6 3.4 11.2c1.2 3.8 2.6 7.4 4.2 11l4.8 10.8c1.8 3.6 3.6 7 5.6 10.4 2 3.4 4.2 6.8 6.4 10s4.6 6.4 7 9.4c2.4 3 5 6 7.6 9 2.6 3 5.4 5.8 8.2 8.4 2.8 2.8 5.8 5.4 8.8 7.8 3 2.6 6.2 4.8 9.4 7.2s6.4 4.4 9.8 6.6c3.4 2 6.8 4 10.2 5.8 3.4 1.8 7 3.6 10.6 5 3.6 1.6 7.2 3 11 4.4 3.8 1.4 7.4 2.6 11.2 3.6 3.8 1 7.6 2 11.4 2.8 3.8 0.8 7.8 1.4 11.6 2 3.8 0.6 7.8 1 11.8 1.2 4 0.2 7.8 0.4 11.8 0.4 4 0 7.8-0.2 11.8-0.4 4-0.2 7.8-0.8 11.8-1.2 3.8-0.6 7.8-1.2 11.6-2.2 3.8-0.8 7.6-1.8 11.4-3 3.8-1.2 7.6-2.4 11.2-3.6 3.6-1.4 7.4-2.8 11-4.4 3.6-1.6 7.2-3.4 10.6-5.2 3.4-1.8 6.8-3.8 10.2-6 3.4-2 6.6-4.4 9.8-6.6 3.2-2.4 6.2-4.8 9.2-7.2 3-2.6 6-5.2 8.8-8 2.8-2.8 5.6-5.6 8.2-8.6 1.4-1.6 3.2-3 5-4.2 1.8-1.2 3.6-2.4 5.6-3.2 2-1 4-1.6 6.2-2.2 2.2-0.6 4.2-0.8 6.4-0.8s4.4 0 6.6 0.4c2.2 0.4 4.2 0.8 6.4 1.6 2 0.8 4 1.6 5.8 2.8 1.8 1.2 3.6 2.4 5.2 3.8s3 3 4.4 4.8c1.4 1.8 2.4 3.6 3.4 5.6 1 2 1.8 4 2.2 6.2 0.6 2.2 1 4.2 1 6.4 0.2 2.2 0 4.4-0.2 6.6-0.2 2.2-0.8 4.2-1.4 6.4-0.6 2-1.6 4-2.6 6-1 1.6-2.2 3.4-3.6 5zM512 88.8c-242.4 0-438.8 196.4-438.8 438.8S269.6 966.2 512 966.2s438.8-196.4 438.8-438.8S754.4 88.8 512 88.8z" p-id="7353" fill="#0066CC"></path></svg>