<?xml version="1.0" standalone="no"?><!DOCTYPE svg PUBLIC "-//W3C//DTD SVG 1.1//EN" "http://www.w3.org/Graphics/SVG/1.1/DTD/svg11.dtd"><svg t="1661501712088" class="icon" viewBox="0 0 1024 1024" version="1.1" xmlns="http://www.w3.org/2000/svg" p-id="1715" width="128" height="128" xmlns:xlink="http://www.w3.org/1999/xlink"><path d="M882.31936 396.81024c0 186.91072-370.3296 435.15904-370.3296 435.15904S141.68064 592.67072 141.68064 396.81024c0-140.78976 91.6992-204.77952 204.77952-204.77952 52.35712 0 99.97312 19.79392 136.13056 52.14208l-94.3104 136.9088c-2.3552 3.42016-3.2256 7.65952-2.4064 11.73504 0.8192 4.06528 3.25632 7.64928 6.7584 9.89184l140.34944 90.19392-64.59392 77.95712c-3.24608 3.92192-4.34176 9.18528-2.9184 14.08l36.13696 124.64128c1.93536 6.68672 8.05888 11.07968 14.73536 11.07968 1.18784 0 2.4064-0.14336 3.61472-0.43008 7.9872-1.92512 13.03552-9.78944 11.47904-17.84832l-21.94432-113.408 92.12928-92.59008c3.10272-3.11296 4.7104-7.41376 4.44416-11.78624-0.27648-4.39296-2.41664-8.448-5.87776-11.15136l-121.36448-94.6176 131.8912-158.40256c2.68288-3.2256 3.93216-7.41376 3.45088-11.58144-0.24576-2.14016-0.95232-4.17792-2.02752-6.01088 20.52096-6.95296 42.47552-10.8032 65.36192-10.8032C790.62016 192.03072 882.31936 283.72992 882.31936 396.81024z" p-id="1716" fill="#e86d76"></path></svg>