<?xml version="1.0" standalone="no"?><!DOCTYPE svg PUBLIC "-//W3C//DTD SVG 1.1//EN" "http://www.w3.org/Graphics/SVG/1.1/DTD/svg11.dtd"><svg t="1669114789052" class="icon" viewBox="0 0 1024 1024" version="1.1" xmlns="http://www.w3.org/2000/svg" p-id="8322" xmlns:xlink="http://www.w3.org/1999/xlink" width="200" height="200"><path d="M1019.114674 905.142857l-475.428571-822.857143c-7.085714-12.228571-19.314286-18.285714-31.657143-18.285714s-24.685714 6.057143-31.657143 18.285714l-475.428571 822.857143C-9.113897 929.6 8.486103 960 36.600389 960h950.857142c28.114286 0 45.714286-30.4 31.657143-54.857143zM475.457531 402.285714c0-5.028571 4.114286-9.142857 9.142858-9.142857h54.857142c5.028571 0 9.142857 4.114286 9.142858 9.142857v210.285715c0 5.028571-4.114286 9.142857-9.142858 9.142857h-54.857142c-5.028571 0-9.142857-4.114286-9.142858-9.142857V402.285714z m36.571429 402.285715a54.868571 54.868571 0 0 1 0-109.714286 54.868571 54.868571 0 0 1 0 109.714286z" p-id="8323" fill="#efb336"></path></svg>